<svg width="47" height="50" viewBox="0 0 47 50" fill="none" xmlns="http://www.w3.org/2000/svg">
<g id="Group 1">
<path id="Vector" d="M15.738 26.7869L13.4833 21.1978L13.5454 12.1502C13.5454 12.1502 19.6185 11.24 22.8081 10.8015C25.9977 10.363 32.3398 7.6905 38.1233 10.2513C44.6929 13.1596 48.1762 19.8905 46.4221 30.1503C44.668 40.41 36.9774 48.713 30.052 49.6066C26.6224 50.0493 26.0102 48.7171 23.3832 48.9075C21.2567 49.0605 21.3726 50.1651 17.7444 49.9789C14.1163 49.7928 11.0383 48.4441 9.22634 46.1936C7.41433 43.943 15.738 26.7869 15.738 26.7869Z" fill="#DC0D28"/>
<path id="Vector_2" d="M5.72647 13.9001C0.526258 18.2439 -1.92698 27.3991 2.22243 37.1707C5.91264 45.8667 11.8079 48.353 11.8079 48.353C11.8079 48.353 22.1173 47.6787 29.3115 43.7982C36.5058 39.9177 43.4518 33.162 43.4518 24.2798C43.4518 15.3977 38.8225 12.3942 38.3219 12.2701C37.8213 12.146 35.757 13.4574 33.4403 13.5195C31.1235 13.5815 29.3115 13.0189 29.3115 13.0189L21.9932 15.4597L15.1506 13.8628C15.1506 13.8628 14.9313 12.9072 15.6718 12.5183C17.2108 11.7157 20.4252 13.081 21.7408 13.0189C23.0564 12.9568 24.1816 11.2028 24.1816 11.2028C24.1816 11.2028 21.1161 10.8883 20.0529 10.6401C18.9897 10.4002 11.7955 8.83225 5.72647 13.9001Z" fill="#FF5117"/>
<path id="Vector_3" d="M22.6054 13.954C20.7106 14.0408 15.6304 12.2578 15.1712 13.652C14.683 15.133 18.4642 17.0981 23.0687 16.7754C27.8718 16.4403 30.8628 13.7843 30.1016 12.3529C29.3446 10.9215 26.2294 13.7843 22.6054 13.954Z" fill="#8D1D0A"/>
<path id="Vector_4" d="M18.0588 5.61367C18.0588 5.61367 17.2604 5.5723 16.8384 5.40268C16.4164 5.23306 15.8207 5.24548 15.8703 4.51736C15.9531 3.29695 17.5169 2.04343 17.8933 1.82004C18.609 1.39806 19.8626 1.5139 20.3383 1.82004C20.9299 2.20064 20.632 3.59067 20.632 3.59067C20.632 3.59067 22.7378 6.75134 23.0315 8.68746C23.3004 10.454 24.4008 15.6087 22.7378 15.9314C21.2195 16.2251 21.8524 12.266 21.0126 10.3299C20.5079 9.17149 19.7922 7.93039 19.1179 7.08644C18.736 6.61691 18.3824 6.12512 18.0588 5.61367Z" fill="#513630"/>
<path id="Vector_5" d="M40.5518 0.686549C40.7214 0.392822 40.3822 0.0949572 38.9921 0.0535872C37.6021 0.0122172 30.019 -0.703484 25.7248 4.64566C22.6386 8.48894 23.1143 11.7654 23.1143 11.7654L25.9357 11.8937L40.5518 0.686549Z" fill="#2F7C31"/>
<path id="Vector_6" d="M31.2393 5.94879C33.7918 4.18643 40.5889 0.34729 40.5889 0.34729C40.5889 0.34729 40.5889 1.31535 40.1669 2.1593C39.7449 3.00325 38.3135 7.17334 32.5011 10.2058C27.0443 13.052 23.4038 12.3529 23.1059 11.8482C22.8163 11.3434 27.0278 8.85711 31.2393 5.94879Z" fill="#709F19"/>
<path id="Vector_7" d="M12.4987 15.133C11.3693 13.5072 8.63469 13.9664 6.18145 17.2387C3.02078 21.4502 3.1904 27.0517 5.3375 27.3909C7.46806 27.726 5.58986 25.5789 8.87464 21.3261C11.3899 18.0703 13.9301 17.1974 12.4987 15.133Z" fill="#FFD2B1"/>
</g>
</svg>
