<svg width="23" height="20" viewBox="0 0 23 20" fill="none" xmlns="http://www.w3.org/2000/svg">
<g id="Group" opacity="0.75">
<path id="Vector" d="M9.40123 13.4568L12.3642 14.4445C12.3642 14.4445 19.7716 12.963 20.7593 12.963C21.7469 12.963 21.7469 13.9506 20.7593 14.9383C19.7716 15.9259 16.3148 18.8889 13.3519 18.8889C10.3889 18.8889 8.41358 17.4074 6.43827 17.4074H1.5" stroke="#FC8019" stroke-width="1.5" stroke-linecap="round" stroke-linejoin="round"/>
<path id="Vector_2" d="M1.5 11.4815C2.48765 10.4938 4.46296 9.01235 6.43827 9.01235C8.41358 9.01235 13.1049 10.9877 13.8457 11.9753C14.5864 12.963 12.3642 14.4444 12.3642 14.4444M7.42593 6.04939V2.09877C7.42593 1.83683 7.52998 1.58561 7.7152 1.40039C7.90042 1.21517 8.15164 1.11111 8.41358 1.11111H20.2654C20.5274 1.11111 20.7786 1.21517 20.9638 1.40039C21.149 1.58561 21.2531 1.83683 21.2531 2.09877V10" stroke="#FC8019" stroke-width="1.5" stroke-linecap="round" stroke-linejoin="round"/>
<path id="Vector_3" d="M11.8701 1.11111H16.8084V5.55556H11.8701V1.11111Z" stroke="#FC8019" stroke-width="1.5" stroke-linecap="round" stroke-linejoin="round"/>
</g>
</svg>
