<svg xmlns="http://www.w3.org/2000/svg"  viewBox="0 0 128 128" width="20px" height="20px"><circle cx="59" cy="69" r="55" fill="#fff"/><path fill="#71c2ff" d="M113.4,76.1c-1.6-0.2-3.1,1-3.4,2.6c-1.3,7-4.1,13.5-7.9,19.2c-0.7,1-2,1.6-3.2,1.3l-10.8-2.5 c-2-0.4-4.2-0.9-6.6-1.4c-7.9-1.8-16.2-3.7-20.9-2.3c-10.3,2.9-14.3,11.1-17.6,17.6c-0.8,1.6-1.5,3.1-2.3,4.4 c-0.8,1.3-2.5,1.8-3.8,1.1c-7.2-3.4-13.5-8.3-18.4-14.4c-1.7-2.1-0.1-5.1,2.6-4.9c0.4,0,0.8,0,1.2,0c3,0,5.5-0.8,7.3-2.4 c3.3-2.8,3.1-6.8,3-10.6c-0.1-3.5-0.3-7.4,1.6-12.3c2.2-5.8,5.6-8.7,8.9-11.6c3.3-2.9,6.6-5.8,7.6-11c1.3-7.1-2.4-14.9-11.5-23.5 c-1.6-1.5-1.1-4.2,1-5c5-1.9,10.4-3.1,16.1-3.4c1.6-0.1,3-1.3,3.1-3c0-1.7-1.4-3.1-3.1-3C24.5,12.5-0.1,39.2,1,71.2 c1.1,29,23.9,53.1,52.9,55.6c30.1,2.6,56.7-18.1,62.1-47.1C116.3,78,115.2,76.4,113.4,76.1z"/><path fill="#fff" d="M121.6,45.8L121.6,45.8c-5.1,12.1-13.3,22.6-23.7,30.5l0,0c-2.3,1.8-5.5,1.7-7.8-0.1l-0.9-0.7 C79.3,67.7,71.5,57.6,66.5,46l-0.1-0.2c-4.9-11.3-2.3-24.4,6.3-33l0,0c11.7-11.7,30.7-11.7,42.4,0l0.1,0.1 C123.9,21.5,126.4,34.5,121.6,45.8z"/><path fill="#444b54" d="M94,80.6c-2,0-4.1-0.7-5.8-2l-0.9-0.7c-10.3-8.1-18.4-18.7-23.6-30.7L63.7,47c-5.4-12.5-2.6-26.7,7-36.3 C76.9,4.4,85.2,1,94,1c8.8,0,17.1,3.4,23.3,9.7c9.6,9.6,12.4,23.8,7.1,36.3l0,0c-5.3,12.5-13.9,23.5-24.7,31.8 C98,80,96,80.6,94,80.6z M94,7c-7.2,0-14,2.8-19.1,7.9c-7.9,7.9-10.1,19.5-5.7,29.7l0.1,0.2C74,55.9,81.6,65.7,91,73.2l0.9,0.7 c1.2,0.9,2.9,1,4.1,0c10-7.6,17.9-17.8,22.8-29.3c4.3-10.2,2.1-21.8-5.7-29.6C107.9,9.8,101.2,7,94,7z M121.6,45.8L121.6,45.8 L121.6,45.8z"/></svg>