<svg width="22" height="22" viewBox="0 0 22 22" fill="none" xmlns="http://www.w3.org/2000/svg">
<g id="twitter icon">
<path id="Vector" d="M21.0832 2.75922C21.0832 2.75922 19.2333 3.85188 18.2048 4.16172C17.6528 3.52694 16.9191 3.07702 16.103 2.87282C15.2868 2.66861 14.4277 2.71998 13.6417 3.01997C12.8558 3.31995 12.1809 3.85409 11.7084 4.55012C11.2359 5.24616 10.9886 6.07053 10.9998 6.91172V7.82838C9.38892 7.87016 7.79267 7.51288 6.35326 6.78838C4.91385 6.06387 3.67596 4.99463 2.74984 3.67588C2.74984 3.67588 -0.91683 11.9259 7.33317 15.5926C5.44532 16.874 3.1964 17.5166 0.916504 17.4259C9.1665 22.0092 19.2498 17.4259 19.2498 6.88422C19.2498 6.62938 19.2242 6.37455 19.1765 6.12338C20.1115 5.20122 21.0832 2.75922 21.0832 2.75922Z" stroke="white" stroke-width="1.6" stroke-linecap="round" stroke-linejoin="round"/>
</g>
</svg>
